<?xml version="1.0" encoding="utf-8"?>
<!-- Generator: Adobe Illustrator 15.0.2, SVG Export Plug-In . SVG Version: 6.00 Build 0)  -->
<!DOCTYPE svg PUBLIC "-//W3C//DTD SVG 1.1//EN" "http://www.w3.org/Graphics/SVG/1.1/DTD/svg11.dtd">
<svg version="1.1" id="Livello_1" xmlns="http://www.w3.org/2000/svg" xmlns:xlink="http://www.w3.org/1999/xlink" x="0px" y="0px"
	 width="841.89px" height="595.28px" viewBox="0 0 841.89 595.28" enable-background="new 0 0 841.89 595.28" xml:space="preserve">
<g>
	<!-- {{ SOTTOCOSTO -->
	<path d="M435.106,310.256c1.328,0,2.334-0.305,3.021-0.918c0.684-0.613,1.026-1.393,1.026-2.336s-0.342-1.719-1.021-2.322
		c-0.68-0.607-1.699-0.908-3.06-0.908c-1.344,0-2.346,0.293-3.007,0.883s-0.99,1.372-0.99,2.348c0,0.977,0.334,1.762,1.004,2.359
		C432.749,309.959,433.757,310.256,435.106,310.256"/>
	<path d="M435.106,288.146c1.328,0,2.334-0.307,3.021-0.922c0.684-0.611,1.026-1.391,1.026-2.334s-0.342-1.719-1.021-2.324
		c-0.68-0.605-1.699-0.906-3.06-0.906c-1.344,0-2.346,0.293-3.007,0.883s-0.99,1.371-0.99,2.348s0.334,1.762,1.004,2.358
		C432.749,287.848,433.757,288.146,435.106,288.146"/>
	<path d="M435.106,339.025c1.328,0,2.334-0.305,3.021-0.92c0.684-0.611,1.026-1.391,1.026-2.334s-0.342-1.719-1.021-2.322
		c-0.68-0.607-1.699-0.908-3.06-0.908c-1.344,0-2.346,0.293-3.007,0.883s-0.99,1.373-0.99,2.348s0.334,1.76,1.004,2.359
		C432.749,338.729,433.757,339.025,435.106,339.025"/>
	<path d="M435.106,258.456c1.328,0,2.334-0.305,3.021-0.92c0.684-0.613,1.026-1.393,1.026-2.336s-0.342-1.719-1.021-2.324
		c-0.68-0.604-1.699-0.905-3.06-0.905c-1.344,0-2.346,0.295-3.007,0.884c-0.661,0.588-0.99,1.372-0.99,2.346
		c0,0.978,0.334,1.762,1.004,2.36C432.749,258.157,433.757,258.456,435.106,258.456"/>
	<path d="M426.894,357.174h17.384V238.106h-17.384V357.174z M430.66,251.078c1.071-1.036,2.562-1.556,4.472-1.556
		c1.893,0,3.373,0.515,4.441,1.543c1.068,1.029,1.605,2.404,1.605,4.127c0,1.744-0.533,3.13-1.597,4.158
		c-1.063,1.031-2.528,1.545-4.396,1.545c-1.193,0-2.196-0.178-3.008-0.535c-0.597-0.268-1.131-0.631-1.606-1.092
		c-0.476-0.463-0.826-0.967-1.056-1.518c-0.309-0.729-0.463-1.572-0.463-2.525C429.054,253.498,429.591,252.115,430.66,251.078
		 M440.976,263.89v2.367h-9.739v3.481h-1.983v-9.319h1.983v3.471H440.976z M430.324,292.139c0.502-0.533,1.222-0.932,2.159-1.197
		l0.561,2.342c-0.609,0.139-1.088,0.428-1.441,0.867c-0.35,0.439-0.526,0.975-0.526,1.604c0,0.869,0.312,1.574,0.935,2.115
		c0.625,0.541,1.635,0.813,3.033,0.813c1.48,0,2.536-0.266,3.166-0.801c0.629-0.533,0.944-1.227,0.944-2.08
		c0-0.627-0.201-1.17-0.601-1.621c-0.399-0.453-1.028-0.779-1.888-0.977l0.728-2.295c1.279,0.352,2.23,0.936,2.852,1.756
		c0.622,0.818,0.934,1.854,0.934,3.113c0,1.557-0.533,2.838-1.597,3.84s-2.519,1.504-4.362,1.504c-1.953,0-3.467-0.504-4.547-1.512
		s-1.619-2.332-1.619-3.975C429.054,294.199,429.476,293.035,430.324,292.139 M429.054,284.914c0-1.727,0.537-3.109,1.606-4.147
		c1.071-1.037,2.562-1.555,4.472-1.555c1.893,0,3.373,0.514,4.441,1.543c1.068,1.028,1.605,2.405,1.605,4.128
		c0,1.744-0.533,3.129-1.597,4.158s-2.528,1.543-4.396,1.543c-1.193,0-2.196-0.178-3.008-0.537c-0.597-0.266-1.131-0.629-1.606-1.09
		s-0.826-0.967-1.056-1.516C429.208,286.711,429.054,285.869,429.054,284.914 M430.66,302.879c1.071-1.037,2.562-1.555,4.472-1.555
		c1.893,0,3.373,0.514,4.441,1.543s1.605,2.401,1.605,4.127c0,1.742-0.533,3.131-1.597,4.158s-2.528,1.545-4.396,1.545
		c-1.193,0-2.196-0.18-3.008-0.535c-0.597-0.269-1.131-0.631-1.606-1.096c-0.476-0.457-0.826-0.964-1.056-1.512
		c-0.309-0.73-0.463-1.574-0.463-2.527C429.054,305.297,429.591,303.916,430.66,302.879 M440.976,324.467v2.365h-9.739v3.479h-1.983
		v-8.772v-0.545v-8.773h1.983v3.473h9.739v2.365h-9.739v2.936v0.545v2.928H440.976z M430.66,331.648
		c1.071-1.037,2.562-1.555,4.472-1.555c1.893,0,3.373,0.514,4.441,1.541c1.068,1.029,1.605,2.406,1.605,4.127
		c0,1.744-0.533,3.132-1.597,4.158c-1.063,1.029-2.528,1.547-4.396,1.547c-1.193,0-2.196-0.18-3.008-0.537
		c-0.597-0.266-1.131-0.629-1.606-1.094c-0.476-0.459-0.826-0.965-1.056-1.512c-0.309-0.73-0.463-1.578-0.463-2.529
		C429.054,334.068,429.591,332.686,430.66,331.648 M440.157,349.857c-0.686,0.797-1.684,1.27-2.995,1.424l-0.224-2.304
		c0.773-0.14,1.341-0.417,1.703-0.845c0.363-0.424,0.543-0.994,0.543-1.715c0-0.762-0.159-1.334-0.483-1.723
		c-0.321-0.385-0.698-0.578-1.131-0.578c-0.276,0-0.515,0.08-0.707,0.246c-0.196,0.158-0.365,0.443-0.509,0.85
		c-0.096,0.275-0.266,0.906-0.512,1.895c-0.315,1.27-0.701,2.16-1.16,2.672c-0.645,0.719-1.432,1.078-2.359,1.078
		c-0.598,0-1.154-0.171-1.676-0.508c-0.52-0.338-0.915-0.824-1.186-1.463c-0.273-0.639-0.408-1.406-0.408-2.309
		c0-1.473,0.321-2.578,0.967-3.322s1.506-1.133,2.584-1.17l0.103,2.367c-0.603,0.1-1.034,0.315-1.3,0.648
		c-0.264,0.334-0.395,0.834-0.395,1.501c0,0.688,0.142,1.226,0.424,1.616c0.181,0.25,0.424,0.373,0.728,0.373
		c0.277,0,0.515-0.115,0.711-0.35c0.25-0.299,0.513-1.023,0.784-2.178c0.271-1.148,0.555-2.003,0.846-2.553
		c0.289-0.551,0.686-0.982,1.189-1.297c0.503-0.311,1.127-0.465,1.867-0.465c0.673,0,1.303,0.184,1.888,0.559
		c0.587,0.375,1.021,0.902,1.308,1.582c0.287,0.684,0.428,1.533,0.428,2.551C441.185,347.926,440.843,349.066,440.157,349.857
		 M440.157,277.769c-0.686,0.793-1.684,1.271-2.995,1.424l-0.224-2.305c0.773-0.139,1.341-0.418,1.703-0.844
		c0.363-0.423,0.543-0.994,0.543-1.714c0-0.765-0.159-1.338-0.483-1.724c-0.321-0.389-0.698-0.58-1.131-0.58
		c-0.276,0-0.515,0.08-0.707,0.242c-0.196,0.164-0.365,0.447-0.509,0.853c-0.096,0.278-0.266,0.91-0.512,1.894
		c-0.315,1.272-0.701,2.162-1.16,2.674c-0.645,0.72-1.432,1.078-2.359,1.078c-0.598,0-1.154-0.168-1.676-0.506
		c-0.52-0.338-0.915-0.828-1.186-1.463c-0.273-0.64-0.408-1.408-0.408-2.308c0-1.474,0.321-2.58,0.967-3.323
		c0.646-0.746,1.506-1.134,2.584-1.173l0.103,2.369c-0.603,0.101-1.034,0.317-1.3,0.651c-0.264,0.332-0.395,0.832-0.395,1.498
		c0,0.69,0.142,1.228,0.424,1.615c0.181,0.252,0.424,0.377,0.728,0.377c0.277,0,0.515-0.119,0.711-0.352
		c0.25-0.299,0.513-1.025,0.784-2.176c0.271-1.149,0.555-2.004,0.846-2.555c0.289-0.552,0.686-0.984,1.189-1.297
		c0.503-0.311,1.127-0.466,1.867-0.466c0.673,0,1.303,0.185,1.888,0.558c0.587,0.375,1.021,0.903,1.308,1.584
		c0.287,0.682,0.428,1.533,0.428,2.551C441.185,275.835,440.843,276.974,440.157,277.769"/>		
	<!-- }} -->

	<!-- {{ EURO -->
	<path d="M771.235,316.203c-1.707-1.648-4.65-3.125-8.887-3.125c-6.418,0-9.711,4.418-10.473,10.359h16.943l-1.41,3.945h-16.063
		c-0.063,0.59-0.063,1.348-0.063,2.059c0,0.824,0.063,1.648,0.063,2.176h14.594l-1.414,4h-12.65
		c0.941,6.766,4.531,10.594,10.527,10.594c4.182,0,6.945-1.41,8.832-3.117v5.18c-1.41,1.176-4.711,2.531-9.473,2.531
		c-8.123,0-13.479-4.828-14.889-15.188h-4.359l1.359-4h2.582c-0.055-0.469-0.055-1.41-0.055-2.176c0-0.711,0-1.469,0.055-2.059
		h-3.941l1.359-3.945h2.938c1.293-8.648,5.711-15.005,14.951-15.005c4.467,0,7.879,1.356,9.473,2.646V316.203z"/>
	<!-- }} -->
		
	<!-- {{ 1 -->
	<path d="M599.585,256.002c-0.902-3.789-3.184-6.191-6.781-7.142l-0.443-0.117l-4.008,11.271l-0.029,30.832l8.207,8.652l3.068-3.236 v-40.144L599.585,256.002z"/>
	<path d="M588.324,309.406v30.666l4.036,11.443l0.443-0.119c3.6-0.953,5.881-3.357,6.781-7.146l0.014-40.26l-3.068-3.234 L588.324,309.406z"/>
	<!-- }} -->
	
	<!-- {{ 8[0] -->
	<polygon points="601.629,258.087 601.629,296.262 604.692,299.498 612.903,290.846 612.903,262.548 	"/>
	<polygon points="604.692,300.756 601.629,303.99 601.629,342.16 612.903,337.697 612.903,309.406 	"/>		
	<path d="M633.202,339.572h-20.711l-10.863,4.256l0.1,0.42c0.893,3.791,3.176,6.195,6.781,7.148l28.904,0.018L633.202,339.572z"/>
	<path d="M608.595,248.845l-0.127,0.017c-3.58,0.942-5.848,3.33-6.738,7.093l-0.1,0.422l10.6,4.192l20.631,0.034l4.18-11.758 H608.595z"/>		
	<polygon points="635.634,294.209 612.276,294.209 606.661,300.125 612.276,306.045 635.634,306.045 641.245,300.125 	"/>	
	<path d="M646.181,256.001c-0.906-3.789-3.188-6.19-6.779-7.141l-0.445-0.117l-4.01,11.271l-0.029,30.832l8.203,8.652l3.074-3.236 v-40.144L646.181,256.001z"/>	
	<path d="M643.12,300.756l-8.203,8.65v30.666l4.039,11.443l0.445-0.119c3.594-0.951,5.875-3.355,6.779-7.146l0.014-40.262 L643.12,300.756z"/>
	<!-- }} -->
	
	<!-- {{ 8[1] -->	
	<polygon points="648.331,258.087 648.331,296.262 651.396,299.498 659.606,290.846 659.606,262.548 	"/>
	<polygon points="651.396,300.756 648.331,303.99 648.331,342.16 659.606,337.697 659.606,309.406 	"/>
	<path d="M679.905,339.572h-20.713l-10.861,4.256l0.1,0.42c0.893,3.791,3.174,6.195,6.781,7.148l28.904,0.018L679.905,339.572z"/>
	<path d="M655.298,248.845l-0.127,0.017c-3.58,0.942-5.848,3.33-6.738,7.093l-0.1,0.422l10.6,4.192l20.629,0.034l4.18-11.758 H655.298z"/>
	<polygon points="682.335,294.209 658.978,294.209 653.364,300.125 658.978,306.045 682.335,306.045 687.948,300.125 	"/>		
	<path d="M692.882,256.001c-0.906-3.789-3.186-6.19-6.779-7.141l-0.443-0.117l-4.01,11.271l-0.029,30.832l8.203,8.652l3.072-3.236 v-40.144L692.882,256.001z"/>		
	<path d="M689.821,300.756l-8.201,8.65v30.666l4.039,11.443l0.445-0.119c3.592-0.951,5.873-3.355,6.777-7.146l0.014-40.262 L689.821,300.756z"/>
	<!-- }} -->
		
	<!-- {{ 8[2] -->	
	<polygon points="694.849,258.087 694.849,296.262 697.913,299.498 706.124,290.846 706.124,262.548 	"/>
	<polygon points="697.913,300.756 694.849,303.99 694.849,342.16 706.124,337.697 706.124,309.406 	"/>
	<path d="M726.423,339.572H705.71l-10.861,4.256l0.1,0.42c0.893,3.791,3.174,6.195,6.779,7.148l28.904,0.018L726.423,339.572z"/>
	<path d="M701.813,248.845l-0.127,0.017c-3.578,0.942-5.846,3.33-6.738,7.093l-0.1,0.422l10.602,4.192l20.629,0.034l4.18-11.758 H701.813z"/>
	<polygon points="728.853,294.209 705.495,294.209 699.882,300.125 705.495,306.045 728.853,306.045 734.464,300.125 	"/>
	<path d="M739.399,256.001c-0.906-3.789-3.188-6.19-6.779-7.141l-0.443-0.117l-4.01,11.271l-0.029,30.832l8.201,8.652l3.074-3.236 v-40.144L739.399,256.001z"/>
	<path d="M736.339,300.756l-8.201,8.65v30.666l4.039,11.443l0.445-0.119c3.592-0.951,5.873-3.355,6.777-7.146l0.014-40.262 L736.339,300.756z"/>
	<!-- }} -->
	
	<!-- {{ .8[0] -->
	<polygon points="748.37,272.505 748.37,256.696 742.038,254.192 742.038,275.527 743.771,277.356 	"/>
	<polygon points="748.37,282.848 743.771,277.993 742.038,279.822 742.038,301.161 748.37,298.654 	"/>
	<path d="M748.071,299.66l-6.086,2.383l0.061,0.252c0.506,2.125,1.785,3.471,3.877,4.008h15.293l-2.365-6.643H748.071z"/>
	<path d="M759.089,255.647l2.348-6.604l-15.193,0.01c-2.002,0.527-3.271,1.863-3.773,3.971l-0.061,0.253l5.932,2.35L759.089,255.647 z"/>
	<polygon points="744.792,277.675 747.94,280.997 760.2,280.997 763.345,277.675 760.2,274.352 747.94,274.352 	"/>
	<path d="M762.294,249.054l-0.268-0.069l-2.238,6.306l-0.018,17.215l4.6,4.852l1.734-1.828l-0.008-22.477 C765.591,250.929,764.312,249.583,762.294,249.054"/>
	<path d="M759.771,282.848v17.113l2.258,6.402l0.266-0.07c2.02-0.529,3.297-1.875,3.811-4.066v-22.404l-1.732-1.829L759.771,282.848 z"/>
	<!-- }} -->	
		
	<!-- {{ .8[1] -->
	<polygon points="774.237,272.505 774.237,256.696 767.903,254.192 767.903,275.527 769.636,277.356 	"/>
	<polygon points="774.237,282.848 769.636,277.993 767.903,279.822 767.903,301.161 774.237,298.654 	"/>
	<path d="M773.938,299.66l-6.086,2.383l0.061,0.252c0.502,2.123,1.779,3.47,3.875,4.008h15.287l-2.357-6.643H773.938z"/>
	<path d="M784.778,255.647l2.342-6.604l-15.191,0.01c-2.006,0.53-3.273,1.865-3.766,3.973l-0.059,0.252l5.928,2.349L784.778,255.647	z"/>
	<polygon points="770.655,277.675 773.81,280.997 786.067,280.997 789.218,277.675 786.067,274.352 773.81,274.352 	"/>
	<path d="M785.638,272.505l4.596,4.851l1.738-1.827l-0.008-22.477c-0.51-2.123-1.789-3.469-3.803-3.998l-0.266-0.069l-2.24,6.306 L785.638,272.505z"/>
	<path d="M785.638,282.848v17.113l2.258,6.402l0.266-0.07c2.014-0.529,3.293-1.875,3.811-4.066v-22.405l-1.738-1.828 L785.638,282.848z"/>
	<!-- }} -->
	
	<!-- {{ LINE -->
	<line fill="none" stroke="#000000" stroke-width="0.606" x1="447.321" y1="310.047" x2="583.384" y2="310.047"/>
	<!-- }} -->
	
	<!-- {{ SCONTO -->
	<path d="M447.321,257.72l2.221-0.217c0.133,0.746,0.404,1.293,0.813,1.644s0.958,0.522,1.653,0.522
		c0.735,0,1.289-0.154,1.662-0.465s0.559-0.673,0.559-1.091c0-0.269-0.077-0.495-0.234-0.683c-0.156-0.188-0.432-0.352-0.822-0.489
		c-0.267-0.093-0.875-0.257-1.826-0.492c-1.223-0.306-2.084-0.676-2.575-1.12c-0.694-0.621-1.041-1.38-1.041-2.275
		c0-0.573,0.163-1.112,0.487-1.614c0.33-0.5,0.799-0.882,1.412-1.146c0.615-0.262,1.356-0.392,2.225-0.392
		c1.42,0,2.486,0.31,3.203,0.933c0.717,0.621,1.094,1.453,1.13,2.49l-2.282,0.1c-0.098-0.582-0.309-0.998-0.628-1.252
		s-0.804-0.383-1.444-0.383c-0.664,0-1.184,0.137-1.559,0.409c-0.241,0.175-0.363,0.41-0.363,0.701c0,0.269,0.113,0.498,0.34,0.687
		c0.289,0.242,0.987,0.494,2.098,0.756c1.111,0.263,1.931,0.533,2.463,0.813c0.531,0.28,0.947,0.664,1.25,1.147
		c0.3,0.486,0.449,1.086,0.449,1.802c0,0.647-0.178,1.256-0.541,1.819c-0.356,0.565-0.866,0.984-1.524,1.26
		c-0.658,0.273-1.478,0.412-2.459,0.412c-1.431,0-2.526-0.328-3.292-0.989C447.927,259.947,447.47,258.984,447.321,257.72"/>		
	<path d="M464.479,257.241l2.214,0.701c-0.34,1.235-0.902,2.151-1.693,2.75c-0.789,0.598-1.791,0.897-3.002,0.897
		c-1.5,0-2.735-0.513-3.701-1.537c-0.967-1.026-1.448-2.429-1.448-4.206c0-1.882,0.485-3.343,1.457-4.384
		c0.971-1.041,2.248-1.562,3.829-1.562c1.385,0,2.508,0.41,3.369,1.226c0.517,0.483,0.901,1.177,1.158,2.081l-2.259,0.539
		c-0.133-0.586-0.413-1.047-0.838-1.387c-0.423-0.338-0.938-0.508-1.544-0.508c-0.838,0-1.518,0.301-2.04,0.903
		c-0.522,0.599-0.78,1.573-0.78,2.922c0,1.429,0.256,2.444,0.769,3.052c0.513,0.608,1.182,0.91,2.005,0.91
		c0.607,0,1.129-0.193,1.566-0.578C463.976,258.676,464.29,258.069,464.479,257.241"/>
	<path d="M467.003,255.815c0-1.149,0.172-2.117,0.518-2.897c0.257-0.576,0.607-1.093,1.053-1.552
		c0.443-0.457,0.93-0.795,1.461-1.018c0.705-0.299,1.516-0.447,2.437-0.447c1.664,0,2.997,0.519,3.995,1.549
		c1.002,1.035,1.5,2.472,1.5,4.313c0,1.825-0.494,3.25-1.487,4.282c-0.989,1.03-2.317,1.545-3.978,1.545
		c-1.682,0-3.018-0.513-4.01-1.538C467.501,259.026,467.003,257.614,467.003,255.815 M469.354,255.737
		c0,1.279,0.295,2.25,0.887,2.91s1.342,0.992,2.252,0.992c0.909,0,1.655-0.328,2.239-0.984c0.583-0.653,0.875-1.639,0.875-2.946
		c0-1.298-0.284-2.265-0.851-2.901c-0.568-0.636-1.322-0.955-2.264-0.955c-0.94,0-1.699,0.322-2.274,0.967
		C469.643,253.467,469.354,254.438,469.354,255.737"/>	
	<polygon points="478.586,261.397 478.586,250.095 480.808,250.095 485.433,257.642 485.433,250.095 487.554,250.095 
		487.554,261.397 485.265,261.397 480.707,254.026 480.707,261.397 	"/>
	<polygon points="491.326,261.397 491.326,252.007 487.974,252.007 487.974,250.095 496.954,250.095 496.954,252.007 
		493.608,252.007 493.608,261.397 	"/>		
	<path d="M496.495,255.815c0-1.149,0.172-2.117,0.517-2.897c0.257-0.576,0.608-1.093,1.053-1.552
		c0.444-0.457,0.931-0.795,1.461-1.018c0.706-0.299,1.517-0.447,2.435-0.447c1.668,0,2.998,0.519,3.998,1.549
		c1,1.035,1.5,2.472,1.5,4.313c0,1.825-0.496,3.25-1.486,4.282c-0.994,1.03-2.318,1.545-3.979,1.545
		c-1.682,0-3.019-0.513-4.01-1.538C496.993,259.026,496.495,257.614,496.495,255.815 M498.847,255.737
		c0,1.279,0.296,2.25,0.887,2.91c0.592,0.66,1.342,0.992,2.252,0.992c0.909,0,1.656-0.328,2.239-0.984
		c0.584-0.653,0.874-1.639,0.874-2.946c0-1.298-0.283-2.265-0.852-2.901c-0.566-0.636-1.322-0.955-2.262-0.955
		c-0.941,0-1.699,0.322-2.275,0.967C499.135,253.467,498.847,254.438,498.847,255.737"/>	
	<!-- }} -->		
	
	<!-- {{ OFFERTA -->
	<path d="M519.175,255.694c0-1.127,0.169-2.074,0.506-2.838c0.252-0.566,0.596-1.072,1.031-1.519
		c0.437-0.449,0.912-0.782,1.431-0.998c0.69-0.291,1.487-0.438,2.39-0.438c1.631,0,2.937,0.506,3.916,1.521
		c0.979,1.011,1.469,2.42,1.469,4.222c0,1.788-0.485,3.186-1.459,4.196c-0.969,1.009-2.271,1.513-3.896,1.513
		c-1.647,0-2.957-0.5-3.931-1.505C519.661,258.844,519.175,257.459,519.175,255.694 M521.479,255.618
		c0,1.256,0.29,2.207,0.869,2.854c0.577,0.647,1.315,0.97,2.206,0.97s1.621-0.32,2.195-0.963c0.571-0.64,0.857-1.605,0.857-2.888
		c0-1.271-0.279-2.218-0.835-2.843c-0.558-0.622-1.295-0.938-2.218-0.938c-0.922,0-1.665,0.319-2.229,0.95
		C521.759,253.392,521.479,254.348,521.479,255.618"/>
	<polygon points="530.517,261.165 530.517,250.091 538.11,250.091 538.11,251.964 532.753,251.964 532.753,254.585 537.376,254.585 
		537.376,256.458 532.753,256.458 532.753,261.165 	"/>
	<polygon points="538.808,261.165 538.808,250.091 546.4,250.091 546.4,251.964 541.044,251.964 541.044,254.585 545.667,254.585 
		545.667,256.458 541.044,256.458 541.044,261.165 	"/>
	<polygon points="547.082,261.165 547.082,250.091 555.294,250.091 555.294,251.964 549.317,251.964 549.317,254.419 
		554.879,254.419 554.879,256.284 549.317,256.284 549.317,259.3 555.507,259.3 555.507,261.165 	"/>
	<path d="M556.251,261.166v-11.075h4.707c1.182,0,2.043,0.098,2.577,0.297c0.536,0.199,0.966,0.555,1.289,1.063
		c0.322,0.508,0.481,1.09,0.481,1.743c0,0.832-0.242,1.518-0.73,2.06s-1.22,0.882-2.193,1.024c0.484,0.281,0.883,0.591,1.199,0.929
		c0.315,0.338,0.739,0.937,1.272,1.797l1.353,2.162h-2.673l-1.618-2.409c-0.574-0.863-0.967-1.404-1.179-1.628
		c-0.211-0.226-0.437-0.379-0.673-0.461c-0.236-0.084-0.611-0.125-1.125-0.125h-0.453v4.623H556.251z M558.485,254.774h1.652
		c1.074,0,1.744-0.047,2.012-0.137s0.477-0.246,0.627-0.468s0.229-0.499,0.229-0.833c0-0.371-0.103-0.671-0.3-0.9
		c-0.2-0.229-0.481-0.375-0.843-0.435c-0.182-0.026-0.727-0.038-1.632-0.038h-1.745V254.774z"/>
	<polygon points="568.748,261.165 568.748,251.964 565.461,251.964 565.461,250.091 574.263,250.091 574.263,251.964 
		570.983,251.964 570.983,261.165 	"/>
	<path d="M583.384,261.165h-2.432l-0.969-2.516h-4.427l-0.914,2.516h-2.372l4.314-11.073h2.365L583.384,261.165z M579.267,256.784
		l-1.525-4.11l-1.496,4.11H579.267z"/>
	<!-- }} -->	
		
	<!-- {{ PUNTI -->	
	<path d="M529.7,276.03v-11.371h3.686c1.397,0,2.305,0.06,2.73,0.172c0.652,0.17,1.197,0.539,1.638,1.111
		c0.438,0.573,0.658,1.309,0.658,2.215c0,0.699-0.126,1.285-0.381,1.762c-0.253,0.476-0.575,0.851-0.966,1.119
		c-0.389,0.272-0.787,0.451-1.188,0.539c-0.548,0.11-1.342,0.162-2.383,0.162h-1.496v4.291H529.7z M531.998,266.583v3.228h1.257
		c0.905,0,1.51-0.06,1.813-0.181c0.307-0.116,0.545-0.305,0.719-0.557c0.175-0.254,0.262-0.549,0.262-0.885
		c0-0.414-0.121-0.755-0.365-1.023s-0.551-0.437-0.924-0.504c-0.273-0.053-0.826-0.078-1.65-0.078H531.998z"/>
	<path d="M539.091,264.659h2.297v6.158c0,0.979,0.027,1.612,0.085,1.901c0.099,0.466,0.331,0.837,0.702,1.119
		c0.369,0.284,0.875,0.424,1.516,0.424c0.651,0,1.143-0.133,1.473-0.399c0.332-0.265,0.531-0.594,0.599-0.981
		s0.101-1.032,0.101-1.931v-6.291h2.295v5.974c0,1.362-0.062,2.33-0.185,2.892c-0.125,0.565-0.353,1.041-0.688,1.43
		c-0.332,0.388-0.777,0.695-1.336,0.927c-0.559,0.228-1.289,0.343-2.188,0.343c-1.086,0-1.907-0.125-2.469-0.375
		s-1.007-0.578-1.331-0.979c-0.326-0.399-0.541-0.819-0.645-1.26c-0.148-0.649-0.225-1.615-0.225-2.887V264.659z"/>
	<polygon points="549.409,276.03 549.409,264.659 551.644,264.659 556.298,272.254 556.298,264.659 558.431,264.659 558.431,276.03 
		556.129,276.03 551.544,268.614 551.544,276.03 	"/>
	<polygon points="562.229,276.03 562.229,266.584 558.853,266.584 558.853,264.659 567.89,264.659 567.89,266.584 564.522,266.584 
		564.522,276.03 	"/>
	<rect x="568.11" y="264.659" width="2.297" height="11.371"/>
	<!-- }} -->
	
	<!-- {{ PROMO -->
	<path d="M447.321,304.92v-11.373h3.686c1.397,0,2.305,0.059,2.73,0.172c0.652,0.172,1.197,0.541,1.637,1.113
		c0.438,0.572,0.659,1.309,0.659,2.215c0,0.697-0.127,1.285-0.38,1.762c-0.254,0.476-0.575,0.848-0.965,1.121
		c-0.393,0.271-0.789,0.451-1.192,0.537c-0.549,0.111-1.341,0.164-2.381,0.164h-1.496v4.289H447.321z M449.619,295.471v3.229h1.256
		c0.903,0,1.511-0.06,1.813-0.183c0.308-0.115,0.545-0.303,0.719-0.557c0.173-0.25,0.26-0.547,0.26-0.885
		c0-0.414-0.122-0.754-0.363-1.021c-0.244-0.27-0.553-0.438-0.924-0.504c-0.273-0.051-0.824-0.08-1.652-0.08H449.619z"/>		
	<path d="M456.735,304.921v-11.374h4.831c1.216,0,2.099,0.104,2.649,0.309c0.551,0.203,0.992,0.566,1.323,1.09
		c0.331,0.521,0.495,1.119,0.495,1.791c0,0.854-0.25,1.557-0.752,2.113s-1.251,0.908-2.25,1.055
		c0.496,0.287,0.907,0.605,1.229,0.951c0.326,0.344,0.76,0.963,1.308,1.846l1.39,2.22h-2.746l-1.66-2.476
		c-0.588-0.881-0.994-1.44-1.209-1.672c-0.218-0.23-0.449-0.389-0.691-0.473c-0.243-0.084-0.627-0.13-1.156-0.13h-0.465v4.75
		H456.735z M459.03,298.359h1.699c1.101,0,1.787-0.049,2.064-0.141c0.272-0.096,0.487-0.254,0.643-0.48
		c0.156-0.229,0.232-0.516,0.232-0.855c0-0.383-0.102-0.689-0.307-0.926c-0.203-0.236-0.493-0.385-0.864-0.445
		c-0.187-0.025-0.745-0.041-1.676-0.041h-1.792V298.359z"/>
	<path d="M466.542,299.303c0-1.156,0.174-2.129,0.518-2.912c0.261-0.58,0.613-1.101,1.062-1.563c0.448-0.459,0.937-0.801,1.47-1.023
		c0.709-0.301,1.525-0.451,2.45-0.451c1.677,0,3.017,0.521,4.023,1.559c1.006,1.043,1.508,2.486,1.508,4.338
		c0,1.838-0.498,3.273-1.496,4.309c-0.999,1.037-2.333,1.555-4.003,1.555c-1.691,0-3.036-0.516-4.034-1.549
		C467.041,302.535,466.542,301.113,466.542,299.303 M468.908,299.229c0,1.285,0.297,2.26,0.894,2.926
		c0.592,0.664,1.348,0.996,2.263,0.996s1.667-0.33,2.255-0.988c0.585-0.66,0.879-1.648,0.879-2.967c0-1.303-0.284-2.275-0.857-2.914
		c-0.57-0.646-1.328-0.961-2.276-0.961c-0.945,0-1.71,0.318-2.287,0.97C469.197,296.938,468.908,297.918,468.908,299.229"/>
	<polygon points="478.141,304.92 478.141,293.547 481.577,293.547 483.641,301.307 485.681,293.547 489.124,293.547 489.124,304.92 
		486.991,304.92 486.991,295.969 484.735,304.92 482.523,304.92 480.273,295.969 480.273,304.92 	"/>
	<path d="M489.748,299.303c0-1.156,0.175-2.129,0.519-2.912c0.261-0.58,0.613-1.101,1.061-1.563
		c0.448-0.459,0.938-0.801,1.469-1.023c0.711-0.301,1.527-0.451,2.451-0.451c1.678,0,3.016,0.521,4.021,1.559
		c1.008,1.043,1.512,2.486,1.512,4.338c0,1.838-0.501,3.273-1.499,4.309c-0.998,1.037-2.332,1.555-4.002,1.555
		c-1.692,0-3.036-0.516-4.033-1.549C490.247,302.535,489.748,301.113,489.748,299.303 M492.115,299.229
		c0,1.285,0.298,2.26,0.892,2.926c0.594,0.664,1.35,0.996,2.264,0.996c0.916,0,1.666-0.33,2.254-0.988
		c0.587-0.66,0.88-1.648,0.88-2.967c0-1.303-0.284-2.275-0.856-2.914c-0.572-0.646-1.33-0.961-2.277-0.961
		c-0.945,0-1.709,0.318-2.287,0.97C492.403,296.938,492.115,297.918,492.115,299.229"/>
	<!-- }} -->	
	
	<!-- {{ FINOAL -->
	<polygon points="502.611,298.838 502.611,294.047 505.894,294.047 505.894,294.858 503.576,294.858 503.576,295.99 505.577,295.99 
		505.577,296.801 503.576,296.801 503.576,298.838 	"/>
	<rect x="506.44" y="294.047" width="0.967" height="4.791"/>
	<polygon points="508.205,298.838 508.205,294.047 509.147,294.047 511.104,297.248 511.104,294.047 512.005,294.047 
		512.005,298.838 511.034,298.838 509.103,295.715 509.103,298.838 	"/>
	<path d="M512.781,296.471c0-0.488,0.069-0.898,0.218-1.229c0.109-0.242,0.258-0.465,0.445-0.655
		c0.189-0.196,0.396-0.335,0.619-0.433c0.299-0.127,0.645-0.191,1.033-0.191c0.705,0,1.271,0.219,1.693,0.658
		c0.426,0.438,0.635,1.045,0.635,1.828c0,0.771-0.209,1.377-0.629,1.813s-0.982,0.656-1.687,0.656c-0.71,0-1.278-0.221-1.698-0.65
		C512.99,297.832,512.781,297.232,512.781,296.471 M513.777,296.441c0,0.539,0.126,0.949,0.375,1.23
		c0.252,0.279,0.567,0.422,0.953,0.422c0.389,0,0.704-0.143,0.95-0.418c0.246-0.281,0.371-0.695,0.371-1.25
		c0-0.553-0.121-0.957-0.362-1.23c-0.241-0.27-0.562-0.404-0.959-0.404s-0.72,0.137-0.964,0.41
		C513.899,295.475,513.777,295.889,513.777,296.441"/>	
	<path d="M506.924,306.263h-1.054l-0.418-1.087h-1.916l-0.393,1.087h-1.027l1.866-4.79h1.022L506.924,306.263z M505.141,304.367
		l-0.659-1.775l-0.646,1.775H505.141z"/>
	<polygon points="507.408,306.262 507.408,301.512 508.375,301.512 508.375,305.457 510.78,305.457 510.78,306.262 	"/>
	<!-- }} -->	
	
	<!-- {{ PZ -->
	<path d="M774.972,350.723v-10.518h3.406c1.291,0,2.133,0.057,2.531,0.158c0.602,0.16,1.104,0.502,1.51,1.031
		c0.406,0.527,0.609,1.209,0.609,2.047c0,0.647-0.117,1.189-0.354,1.631c-0.23,0.439-0.531,0.785-0.893,1.037
		c-0.361,0.248-0.727,0.412-1.098,0.496c-0.51,0.1-1.242,0.154-2.203,0.154h-1.385v3.963H774.972z M777.097,341.984v2.984h1.16
		c0.836,0,1.398-0.055,1.682-0.162c0.281-0.115,0.502-0.283,0.662-0.518c0.16-0.232,0.24-0.506,0.24-0.816
		c0-0.384-0.111-0.703-0.336-0.947c-0.229-0.25-0.512-0.406-0.852-0.471c-0.256-0.047-0.77-0.07-1.533-0.07H777.097z"/>
	<polygon points="782.759,350.723 782.759,348.807 788.282,341.984 783.384,341.984 783.384,340.205 791.079,340.205 
		791.079,341.857 785.321,348.952 791.306,348.952 791.306,350.723 	"/>
	<!-- }} -->
	
	<!-- {{ -1 -->
	<path d="M487.979,331.182l-0.007-14.537c-0.332-1.393-1.17-2.276-2.491-2.625l-0.222-0.059l-1.48,4.203v11.07l3.024,3.189 L487.979,331.182z"/>		
	<path d="M483.779,335.861l0.015,11.15l1.465,4.123l0.224-0.061c1.321-0.35,2.159-1.233,2.497-2.684v-14.48l-1.176-1.238 L483.779,335.861z"/>
	<!-- }} -->	
	
	<!-- {{ -8[0] -->
	<polygon points="494.399,329.234 494.399,318.967 490.2,317.311 490.2,331.182 491.37,332.424 	"/>
	<polygon points="494.399,335.861 491.371,332.672 490.2,333.91 490.2,347.783 494.399,346.123 	"/>
	<path d="M494.1,346.695l-3.899,1.541l0.049,0.211c0.328,1.393,1.166,2.277,2.553,2.637h10.463l-1.566-4.406L494.1,346.695z"/>
	<path d="M501.575,318.389l1.557-4.377l-10.406,0.008c-1.316,0.349-2.148,1.225-2.477,2.605l-0.049,0.211l3.965,1.553H501.575z"/>
	<polygon points="491.994,332.545 494.084,334.748 502.554,334.748 504.642,332.545 502.554,330.348 494.084,330.348 	"/>
	<path d="M502.196,329.234l3.021,3.189l1.179-1.242l-0.007-14.537c-0.332-1.393-1.17-2.275-2.489-2.625l-0.224-0.058l-1.48,4.202 V329.234z"/>
	<path d="M502.196,335.861l0.016,11.15l1.465,4.123l0.224-0.061c1.319-0.35,2.157-1.233,2.496-2.684v-14.48l-1.179-1.238 L502.196,335.861z"/>
	<!-- }} -->	
		
	<!-- {{ -8[1] -->
	<polygon points="512.817,329.234 512.817,318.967 508.618,317.311 508.618,331.182 509.79,332.424 	"/>
	<polygon points="512.817,335.861 509.79,332.672 508.618,333.91 508.618,347.783 512.817,346.123 	"/>
	<path d="M512.519,346.695l-3.9,1.541l0.049,0.211c0.328,1.393,1.164,2.277,2.555,2.637h10.461l-1.566-4.406L512.519,346.695z"/>
	<path d="M519.997,318.389l1.552-4.377l-10.405,0.008c-1.313,0.349-2.146,1.225-2.475,2.605l-0.05,0.211l3.969,1.553H519.997z"/>
	<polygon points="510.414,332.545 512.503,334.748 520.974,334.748 523.06,332.545 520.974,330.348 512.503,330.348 	"/>
	<path d="M520.615,329.234l3.024,3.189l1.172-1.242l-0.008-14.535c-0.326-1.392-1.162-2.275-2.486-2.627l-0.223-0.058l-1.479,4.202 V329.234z"/>
	<path d="M520.615,335.861l0.015,11.15l1.465,4.123l0.223-0.061c1.324-0.35,2.16-1.234,2.494-2.684v-14.48l-1.172-1.238 L520.615,335.861z"/>
	<!-- }} -->	
	
	<!-- {{ -8[2] -->
	<polygon points="531.376,329.234 531.376,318.967 527.177,317.311 527.177,331.182 528.35,332.424 	"/>	
	<polygon points="531.376,335.861 528.351,332.672 527.177,333.91 527.177,347.783 531.376,346.123 	"/>
	<path d="M531.077,346.695l-3.9,1.541l0.049,0.211c0.332,1.394,1.17,2.277,2.556,2.637h10.461l-1.563-4.406L531.077,346.695z"/>
	<path d="M538.55,318.389l1.557-4.377l-10.408,0.008c-1.315,0.349-2.147,1.225-2.473,2.605l-0.05,0.211l3.965,1.553H538.55z"/>
	<polygon points="528.972,332.545 531.062,334.748 539.534,334.748 541.618,332.545 539.534,330.348 531.062,330.348 	"/>
	<path d="M539.176,329.234l3.021,3.189l1.176-1.242l-0.008-14.537c-0.328-1.39-1.166-2.275-2.49-2.625l-0.223-0.058l-1.476,4.202 V329.234z"/>
	<path d="M539.176,335.861l0.015,11.148l1.461,4.125l0.223-0.061c1.324-0.35,2.162-1.234,2.498-2.684v-14.48l-1.176-1.238 L539.176,335.861z"/>
	<!-- }} -->	
	
	<!-- {{ -.8[0] -->
	<polygon points="545.129,315.943 545.129,323.65 545.794,324.406 547.45,322.662 547.491,316.882 	"/>
	<polygon points="545.793,324.516 545.169,325.178 545.129,332.979 547.491,332.047 547.491,326.367 	"/>
	<path d="M551.28,332.336l-3.968,0.01l-2.184,0.863l0.03,0.127c0.187,0.785,0.658,1.279,1.437,1.477h5.565L551.28,332.336z"/>
	<path d="M546.546,314.117c-0.736,0.195-1.203,0.688-1.388,1.461l-0.028,0.127l2.224,0.869h3.858l0.877-2.463L546.546,314.117z"/>
	<polygon points="551.798,323.271 547.368,323.225 546.13,324.463 547.259,325.654 551.755,325.701 552.927,324.463 	"/>
	<path d="M553.899,315.588c-0.185-0.781-0.654-1.275-1.398-1.473l-0.133-0.033l-0.828,2.357v6.119l1.699,1.848l0.664-0.695 L553.899,315.588z"/>
	<path d="M553.239,324.516l-1.699,1.791l0.009,6.229l0.819,2.307l0.133-0.035c0.742-0.191,1.213-0.687,1.402-1.506v-8.02 L553.239,324.516z"/>
	<!-- }} -->
		
	<!-- {{ -.8[1] -->
	<polygon points="555.084,315.943 555.084,323.65 555.748,324.406 557.406,322.662 557.446,316.882 	"/>
	<polygon points="555.747,324.516 555.124,325.178 555.084,332.979 557.446,332.047 557.446,326.367 	"/>
	<path d="M561.231,332.336l-3.963,0.01l-2.185,0.863l0.03,0.125c0.184,0.785,0.654,1.281,1.434,1.479h5.563L561.231,332.336z"/>
	<path d="M556.499,314.117c-0.736,0.195-1.203,0.688-1.385,1.461l-0.031,0.127l2.225,0.869h3.859l0.873-2.463L556.499,314.117z"/>
	<polygon points="561.753,323.271 557.323,323.225 556.085,324.463 557.214,325.654 561.71,325.701 562.882,324.463 	"/>
	<path d="M563.854,315.588c-0.188-0.781-0.658-1.275-1.397-1.471l-0.134-0.037l-0.828,2.359v6.119l1.693,1.848l0.67-0.695 L563.854,315.588z"/>
	<path d="M563.19,324.516l-1.695,1.791l0.008,6.229l0.82,2.307l0.133-0.035c0.738-0.191,1.209-0.688,1.402-1.506v-8.02 L563.19,324.516z"/>
	<!-- }} -->
	
	<!-- {{ SMALLEURO -->
	<path d="M562.709,338.691c-0.599-0.578-1.628-1.094-3.11-1.094c-2.246,0-3.4,1.547-3.666,3.627h5.93l-0.493,1.381h-5.623
		c-0.021,0.205-0.021,0.471-0.021,0.721c0,0.287,0.021,0.576,0.021,0.762h5.108l-0.494,1.4h-4.428
		c0.33,2.367,1.586,3.707,3.685,3.707c1.464,0,2.432-0.492,3.092-1.09v1.813c-0.494,0.412-1.649,0.887-3.315,0.887
		c-2.845,0-4.719-1.691-5.213-5.316h-1.527l0.478-1.4h0.903c-0.018-0.164-0.018-0.494-0.018-0.762c0-0.25,0-0.516,0.018-0.721
		h-1.381l0.478-1.381h1.028c0.451-3.029,1.999-5.254,5.234-5.254c1.563,0,2.758,0.475,3.315,0.926V338.691z"/>
	<!-- }} -->	
	
	<!-- {{ MT -->
	<polygon points="566.788,337.494 566.788,327.422 569.83,327.422 571.657,334.289 573.466,327.422 576.515,327.422 
		576.515,337.494 574.624,337.494 574.624,329.564 572.626,337.494 570.669,337.494 568.677,329.564 568.677,337.494 	"/>
	<polygon points="579.744,337.494 579.744,329.127 576.759,329.127 576.759,327.422 584.759,327.422 584.759,329.127 
		581.778,329.127 581.778,337.494 	"/>
	<!-- }} -->
	
	<!-- {{ LT -->
	<polygon points="566.788,324.209 566.788,314.223 568.82,314.223 568.82,322.514 573.876,322.514 573.876,324.209 	"/>	
	<polygon points="575.493,324.209 575.493,315.846 572.505,315.846 572.505,314.141 580.509,314.141 580.509,315.846 
		577.527,315.846 577.527,324.209 	"/>
	<!-- }} -->
	
	<!-- {{ KG -->
	<polygon points="566.788,350.775 566.788,340.705 568.821,340.705 568.821,345.18 572.929,340.705 575.662,340.705 
		571.871,344.625 575.87,350.775 573.239,350.775 570.472,346.049 568.821,347.732 568.821,350.775 	"/>
	<path d="M580.55,347.072v-1.695h4.382v4.012c-0.425,0.413-1.044,0.773-1.853,1.09c-0.805,0.311-1.625,0.465-2.454,0.465
		c-1.054,0-1.972-0.215-2.755-0.658c-0.782-0.442-1.37-1.072-1.764-1.898c-0.397-0.82-0.593-1.713-0.593-2.682
		c0-1.049,0.222-1.982,0.661-2.793c0.439-0.814,1.083-1.439,1.932-1.877c0.642-0.338,1.447-0.502,2.41-0.502
		c1.249,0,2.223,0.264,2.93,0.789c0.701,0.521,1.152,1.244,1.355,2.174l-2.021,0.373c-0.14-0.494-0.408-0.881-0.797-1.172
		c-0.396-0.281-0.881-0.426-1.467-0.426c-0.889,0-1.596,0.28-2.119,0.85c-0.525,0.559-0.787,1.395-0.787,2.504
		c0,1.195,0.265,2.086,0.795,2.688c0.531,0.598,1.229,0.895,2.09,0.895c0.424,0,0.853-0.08,1.281-0.248
		c0.428-0.164,0.793-0.371,1.102-0.611v-1.275H580.55z"/>
	<!-- }} -->		
	
	<!-- {{ %8[0] -->
	<polygon points="462.854,275.02 462.896,268.038 460.088,266.93 460.088,276.237 460.864,277.12 	"/>
	<polygon points="462.896,286.42 462.896,279.545 460.864,277.341 460.129,278.119 460.088,287.531 	"/>
	<path d="M462.69,286.838l-2.627,1.043l0.028,0.125c0.222,0.938,0.785,1.531,1.712,1.771h7.065l-1.048-2.949L462.69,286.838z"/>
	<path d="M467.737,267.613l1.037-2.928l-7.02,0.005c-0.885,0.233-1.445,0.821-1.663,1.75l-0.028,0.127l2.664,1.046H467.737z"/>
	<polygon points="469.802,277.229 468.448,275.804 462.745,275.758 461.282,277.229 462.636,278.656 468.405,278.702 	"/>
	<path d="M469.321,264.69l-0.133-0.035l-0.998,2.824v7.438l2.031,2.202l0.777-0.824l-0.005-9.841 C470.771,265.517,470.208,264.924,469.321,264.69"/>
	<path d="M468.19,279.483l0.008,7.546l0.99,2.777l0.133-0.035c0.888-0.234,1.451-0.828,1.678-1.799v-9.751l-0.777-0.881 L468.19,279.483z"/>
	<!-- }} -->

	<!-- {{ %8[1] -->
	<polygon points="474.983,275.02 475.024,268.038 472.218,266.93 472.218,276.237 472.993,277.12 	"/>
	<polygon points="475.024,286.42 475.024,279.545 472.993,277.341 472.259,278.119 472.218,287.531 	"/>
	<path d="M474.819,286.838l-2.627,1.043l0.029,0.125c0.221,0.937,0.783,1.529,1.715,1.771h7.059l-1.045-2.949L474.819,286.838z"/>
	<path d="M479.868,267.613l1.037-2.928l-7.019,0.005c-0.884,0.231-1.442,0.82-1.665,1.75l-0.029,0.126l2.665,1.047H479.868z"/>
	<polygon points="481.931,277.229 480.579,275.805 474.875,275.758 473.413,277.229 474.767,278.655 480.535,278.702 	"/>
	<path d="M480.321,274.917l2.031,2.203l0.773-0.824l-0.004-9.842c-0.221-0.935-0.782-1.528-1.672-1.764l-0.133-0.035l-0.996,2.824 V274.917z"/>
	<path d="M480.321,279.483l0.008,7.544l0.988,2.779l0.133-0.035c0.89-0.236,1.453-0.829,1.676-1.799v-9.751l-0.773-0.881 L480.321,279.483z"/>
	<!-- }} -->
		
	<!-- {{ PERCENT -->		
	<path d="M484.446,267.934c0-1.052,0.232-1.83,0.693-2.336c0.461-0.509,1.086-0.763,1.875-0.763c0.82,0,1.457,0.254,1.918,0.758
		c0.461,0.502,0.693,1.285,0.693,2.341c0,1.051-0.232,1.83-0.693,2.34c-0.461,0.505-1.084,0.757-1.875,0.757
		c-0.818,0-1.457-0.25-1.918-0.754C484.679,269.771,484.446,268.991,484.446,267.934 M486.198,267.915
		c0,0.769,0.091,1.277,0.266,1.539c0.133,0.194,0.317,0.289,0.551,0.289c0.24,0,0.428-0.095,0.562-0.289
		c0.171-0.262,0.259-0.771,0.259-1.539c0-0.76-0.088-1.271-0.259-1.526c-0.134-0.196-0.321-0.3-0.562-0.3
		c-0.233,0-0.418,0.101-0.551,0.291C486.289,266.645,486.198,267.155,486.198,267.915 M488.728,277.22h-1.664l6.25-12.385h1.619
		L488.728,277.22z M492.364,274.139c0-1.054,0.23-1.83,0.691-2.337c0.463-0.51,1.094-0.76,1.895-0.76c0.807,0,1.439,0.25,1.902,0.76
		c0.461,0.507,0.691,1.283,0.691,2.337c0,1.055-0.23,1.838-0.691,2.346c-0.463,0.507-1.09,0.759-1.881,0.759
		c-0.814,0-1.453-0.252-1.916-0.759C492.595,275.977,492.364,275.193,492.364,274.139 M494.117,274.13
		c0,0.765,0.09,1.273,0.263,1.529c0.133,0.198,0.317,0.297,0.553,0.297c0.242,0,0.427-0.097,0.554-0.289
		c0.177-0.262,0.264-0.772,0.264-1.537c0-0.764-0.084-1.276-0.258-1.535c-0.131-0.193-0.317-0.288-0.56-0.288
		c-0.239,0-0.422,0.095-0.553,0.288C494.207,272.854,494.117,273.366,494.117,274.13"/>
	<!-- }} -->
	
	<!-- {{ x8[0] -->
	<polygon points="526.241,291.221 526.282,284.236 523.476,283.131 523.476,292.439 524.251,293.318 	"/>
	<polygon points="526.282,302.619 526.282,295.744 524.252,293.543 523.517,294.318 523.476,303.73 	"/>
	<path d="M526.077,303.037l-2.627,1.045l0.029,0.125c0.223,0.936,0.785,1.529,1.712,1.77h7.063l-1.047-2.949L526.077,303.037z"/>
	<path d="M531.126,283.814l1.037-2.928l-7.021,0.005c-0.886,0.231-1.444,0.821-1.663,1.751l-0.029,0.127l2.664,1.045H531.126z"/>
	<polygon points="533.19,293.43 531.836,292.008 526.133,291.961 524.67,293.43 526.024,294.855 531.792,294.902 	"/>
	<path d="M532.709,280.891l-0.133-0.035l-0.998,2.824v7.438l2.032,2.201l0.775-0.82l-0.004-9.844 C534.159,281.717,533.597,281.125,532.709,280.891"/>
	<path d="M531.577,295.684l0.01,7.545l0.988,2.777l0.133-0.035c0.89-0.234,1.451-0.828,1.679-1.797v-9.752l-0.776-0.879 L531.577,295.684z"/>
	<!-- }} -->
		
	<!-- {{ x8[1] -->
	<polygon points="538.372,291.221 538.413,284.236 535.605,283.131 535.605,292.439 536.38,293.318 	"/>
	<polygon points="538.413,302.619 538.413,295.744 536.38,293.543 535.646,294.318 535.605,303.73 	"/>
	<path d="M538.208,303.037l-2.627,1.045l0.028,0.125c0.22,0.935,0.783,1.527,1.714,1.77h7.061l-1.047-2.949L538.208,303.037z"/>
	<path d="M543.255,283.814l1.039-2.928l-7.02,0.005c-0.883,0.229-1.443,0.819-1.665,1.751l-0.028,0.127l2.664,1.045H543.255z"/>
	<polygon points="545.319,293.43 543.968,292.008 538.263,291.961 536.8,293.43 538.154,294.855 543.923,294.902 	"/>
	<path d="M544.838,280.891l-0.133-0.035l-0.995,2.824v7.438l2.029,2.203l0.775-0.822l-0.005-9.844 C546.29,281.719,545.728,281.125,544.838,280.891"/>
	<path d="M543.71,295.684l0.008,7.543l0.986,2.779l0.135-0.035c0.89-0.236,1.453-0.828,1.676-1.797v-9.752l-0.775-0.879 L543.71,295.684z"/>
	<!-- }} -->
	
	<!-- {{ x8[2] -->
	<polygon points="550.595,291.221 550.636,284.236 547.83,283.131 547.83,292.439 548.604,293.32 	"/>
	<polygon points="550.636,302.619 550.636,295.744 548.604,293.543 547.871,294.318 547.83,303.73 	"/>
	<path d="M550.431,303.037l-2.625,1.045l0.028,0.125c0.222,0.936,0.784,1.529,1.712,1.77h7.064l-1.049-2.949L550.431,303.037z"/>
	<path d="M555.478,283.814l1.041-2.928l-7.021,0.005c-0.883,0.231-1.443,0.819-1.663,1.751l-0.028,0.127l2.666,1.045H555.478z"/>
	<polygon points="557.542,293.43 556.193,292.008 550.486,291.961 549.024,293.43 550.378,294.855 556.149,294.902 	"/>
	<path d="M557.061,280.891l-0.133-0.035l-0.992,2.824v7.438l2.026,2.201l0.777-0.82l-0.005-9.844 C558.513,281.719,557.95,281.125,557.061,280.891"/>
	<path d="M555.935,295.684l0.008,7.543l0.984,2.779l0.135-0.035c0.889-0.234,1.453-0.828,1.678-1.797v-9.752l-0.777-0.879 L555.935,295.684z"/>
	<!-- }} -->	
	
	<!-- {{ x8[3] -->
	<polygon points="563.167,291.221 563.208,284.236 560.399,283.131 560.399,292.439 561.175,293.318 	"/>
	<polygon points="563.208,302.619 563.208,295.744 561.175,293.543 560.44,294.318 560.399,303.73 	"/>
	<path d="M563.003,303.037l-2.629,1.045l0.029,0.125c0.221,0.936,0.784,1.527,1.712,1.77h7.062l-1.045-2.949L563.003,303.037z"/>
	<path d="M568.048,283.814l1.041-2.928l-7.021,0.005c-0.882,0.231-1.442,0.819-1.665,1.751l-0.029,0.127l2.666,1.045H568.048z"/>
	<polygon points="570.112,293.43 568.763,292.008 563.059,291.961 561.596,293.43 562.95,294.855 568.719,294.902 	"/>
	<path d="M569.633,280.891l-0.133-0.035l-0.995,2.824v7.438l2.027,2.203l0.775-0.822l-0.004-9.844 C571.086,281.719,570.522,281.125,569.633,280.891"/>
	<path d="M568.505,295.684l0.008,7.543l0.986,2.779l0.135-0.035c0.891-0.236,1.453-0.828,1.675-1.797v-9.752l-0.775-0.879 L568.505,295.684z"/>
	<!-- }} -->
	
	<!-- {{ x8[4] -->
	<polygon points="575.39,291.221 575.431,284.236 572.624,283.131 572.624,292.439 573.399,293.318 	"/>
	<polygon points="575.431,302.619 575.431,295.744 573.399,293.543 572.665,294.318 572.624,303.73 	"/>
	<path d="M575.226,303.037l-2.627,1.045l0.029,0.125c0.223,0.936,0.785,1.529,1.712,1.77h7.063l-1.047-2.949L575.226,303.037z"/>
	<path d="M580.272,283.814l1.041-2.928l-7.022,0.005c-0.884,0.231-1.442,0.821-1.663,1.751l-0.029,0.127l2.666,1.045H580.272z"/>
	<polygon points="582.337,293.43 580.987,292.008 575.281,291.961 573.818,293.43 575.173,294.855 580.943,294.902 	"/>
	<path d="M580.729,291.117l2.028,2.201l0.776-0.82l-0.004-9.844c-0.221-0.936-0.785-1.529-1.676-1.764l-0.133-0.034l-0.992,2.822 V291.117z"/>
	<path d="M580.729,295.684l0.008,7.543l0.984,2.779l0.133-0.035c0.892-0.234,1.455-0.828,1.68-1.797v-9.752l-0.776-0.879 L580.729,295.684z"/>
	<!-- }} -->
	
	<!-- {{ X -->
	<polygon points="550.804,300.541 552.519,298.094 550.874,295.787 552.41,295.787 553.253,297.092 554.138,295.787 
		555.616,295.787 554.005,298.039 555.765,300.541 554.22,300.541 553.253,299.068 552.276,300.541 	"/>
	<!-- }} -->
	
	<!-- {{ DOT -->
	<rect x="552.452" y="300.869" width="1.662" height="1.664"/>
	<!-- }} -->
	
	<!-- {{ N -->
	<polygon points="776.972,308.434 779.837,308.434 783.556,315.033 783.587,315.033 783.587,308.434 786.212,308.434 
		786.212,319.143 783.347,319.143 779.626,312.469 779.597,312.469 779.597,319.143 776.972,319.143 	"/>
	<!-- }} -->	
	
	<!-- {{ STAR -->
	<polygon points="782.229,323.109 784.206,327.111 788.622,327.752 785.425,330.867 786.179,335.266 782.229,333.189 
		778.282,335.266 779.036,330.867 775.839,327.752 780.255,327.111 	"/>
	<!-- }} -->
	
	<!-- {{ HAND -->
	<path d="M456.187,270.272c-0.275-0.229-0.686-0.192-0.915,0.082l-1.821,1.351v-1.87v-4.914c0-0.357-0.291-0.648-0.65-0.648
		c-0.358,0-0.649,0.291-0.649,0.648v4.086h-0.31v-5.197c0-0.359-0.291-0.649-0.649-0.649s-0.649,0.29-0.649,0.649v5.197h-0.31v-4.17
		c0-0.359-0.291-0.65-0.649-0.65s-0.649,0.291-0.649,0.65v4.17h-0.31v-2.289c0-0.359-0.291-0.65-0.649-0.65s-0.649,0.291-0.649,0.65
		c0,2.407,0.014,4.817-0.004,7.223c-0.013,1.697,1.975,1.523,3.258,1.523c1.121,0,2.49,0.086,3.192-0.863
		c0.656-0.889,1.312-1.795,1.959-2.688c0.177-0.244,0.36-0.483,0.539-0.726C456.499,270.912,456.462,270.502,456.187,270.272"/>
	<!-- }} -->
	
	<!-- {{ RADIO -->
	<path d="M490.541,286.963l0.586,0.584c0.972-0.969,2.55-0.969,3.519,0l0.588-0.584
		C493.938,285.668,491.833,285.668,490.541,286.963"/>
	<path d="M488.487,284.908l1.1,1.102c1.82-1.82,4.779-1.82,6.598,0l1.1-1.102C494.859,282.484,490.913,282.484,488.487,284.908"/>
	<path d="M485.881,282.303l1.752,1.752c2.897-2.897,7.61-2.897,10.508,0l1.75-1.752C496.028,278.44,489.745,278.44,485.881,282.303"
		/>
	<path d="M492.887,287.885c0.788,0,1.429,0.639,1.429,1.43c0,0.789-0.641,1.428-1.429,1.428c-0.789,0-1.429-0.639-1.429-1.428
		C491.458,288.523,492.098,287.885,492.887,287.885"/>
	<!-- }} -->
		
	<!-- {{ MOON -->	
	<path d="M456.667,338.941c-3.134,0-5.675-2.541-5.675-5.674c0-1.775,0.817-3.359,2.091-4.4h-0.031c-3.164,0-5.73,2.564-5.73,5.729
		s2.566,5.729,5.73,5.729c1.428,0,2.73-0.525,3.733-1.389C456.745,338.936,456.707,338.941,456.667,338.941"/>
	<!-- }}	-->
		
	<!-- {{ ROUND -->
	<path d="M470.703,329.936l0.69-0.818c0.123-0.143,0.07-0.26-0.117-0.264l-3.619-0.047c-0.188-0.002-0.283,0.139-0.211,0.311
		l1.363,3.301c0.072,0.174,0.205,0.182,0.293,0.016l0.539-0.971c0.793,0.77,1.285,1.846,1.285,3.039
		c0,0.234-0.021,0.465-0.057,0.689l1.814,0.313c0.056-0.326,0.084-0.662,0.084-1.002
		C472.769,332.682,471.97,331.049,470.703,329.936"/>		
	<path d="M460.713,333.24l-1.054-0.189c-0.184-0.037-0.26,0.068-0.168,0.232l1.767,3.158c0.093,0.164,0.261,0.178,0.376,0.027
		l2.178-2.83c0.114-0.148,0.053-0.268-0.135-0.262l-1.109,0.018c0.271-1.07,0.957-2.033,1.99-2.629
		c0.203-0.119,0.412-0.217,0.625-0.297l-0.637-1.729c-0.311,0.115-0.613,0.258-0.909,0.43
		C462.062,330.078,461.046,331.586,460.713,333.24"/>
	<path d="M468.567,340.242l0.363,1.006c0.061,0.18,0.189,0.193,0.285,0.031l1.853-3.109c0.097-0.162,0.022-0.313-0.163-0.338
		l-3.539-0.473c-0.188-0.025-0.258,0.086-0.16,0.246l0.57,0.953c-1.063,0.301-2.242,0.188-3.273-0.41
		c-0.203-0.117-0.393-0.25-0.568-0.395l-1.18,1.416c0.254,0.211,0.531,0.402,0.826,0.574
		C465.156,340.654,466.968,340.779,468.567,340.242"/>
	<!-- }} -->	
	
	<!-- {{ PREZZO -->
	<path d="M447.321,319.357v-5.012h1.623c0.617,0,1.017,0.025,1.205,0.077c0.287,0.073,0.527,0.237,0.72,0.489
		c0.194,0.252,0.291,0.576,0.291,0.977c0,0.307-0.056,0.566-0.168,0.775c-0.111,0.209-0.253,0.373-0.425,0.494
		c-0.172,0.119-0.348,0.199-0.525,0.236c-0.24,0.049-0.591,0.072-1.049,0.072h-0.66v1.891H447.321z M448.333,315.193v1.422h0.555
		c0.398,0,0.666-0.025,0.799-0.078c0.135-0.053,0.24-0.135,0.316-0.246s0.114-0.242,0.114-0.389c0-0.184-0.054-0.334-0.16-0.451
		c-0.106-0.119-0.243-0.193-0.407-0.223c-0.119-0.023-0.363-0.035-0.728-0.035H448.333z"/>		
	<path d="M451.993,319.357v-5.012h2.13c0.536,0,0.925,0.045,1.168,0.135c0.241,0.092,0.437,0.252,0.582,0.48
		c0.147,0.23,0.219,0.494,0.219,0.791c0,0.375-0.11,0.686-0.331,0.93c-0.223,0.246-0.552,0.4-0.99,0.465
		c0.217,0.127,0.398,0.268,0.541,0.42c0.141,0.152,0.334,0.424,0.575,0.813l0.612,0.979h-1.211l-0.73-1.09
		c-0.26-0.391-0.438-0.637-0.533-0.738c-0.096-0.1-0.197-0.17-0.305-0.207c-0.107-0.039-0.275-0.057-0.509-0.057h-0.205v2.092
		H451.993z M453.006,316.465h0.748c0.485,0,0.789-0.021,0.909-0.061c0.121-0.041,0.216-0.111,0.283-0.213
		c0.069-0.1,0.104-0.225,0.104-0.375c0-0.168-0.045-0.305-0.135-0.408c-0.092-0.104-0.219-0.17-0.383-0.197
		c-0.082-0.012-0.328-0.018-0.737-0.018h-0.789V316.465z"/>
	<polygon points="457.046,319.357 457.046,314.346 460.761,314.346 460.761,315.193 458.058,315.193 458.058,316.305 
		460.573,316.305 460.573,317.148 458.058,317.148 458.058,318.514 460.856,318.514 460.856,319.357 	"/>
	<polygon points="461.28,319.357 461.28,318.445 463.912,315.193 461.578,315.193 461.578,314.346 465.245,314.346 465.245,315.133 
		462.501,318.514 465.351,318.514 465.351,319.357 	"/>
	<polygon points="465.557,319.357 465.557,318.445 468.188,315.193 465.854,315.193 465.854,314.346 469.521,314.346 
		469.521,315.133 466.776,318.514 469.626,318.514 469.626,319.357 	"/>
	<path d="M470.062,316.883c0-0.51,0.076-0.939,0.229-1.285c0.114-0.256,0.27-0.484,0.467-0.688s0.412-0.354,0.647-0.451
		c0.312-0.132,0.673-0.197,1.08-0.197c0.738,0,1.329,0.229,1.772,0.686c0.443,0.459,0.664,1.096,0.664,1.912
		c0,0.809-0.219,1.441-0.659,1.898c-0.438,0.457-1.027,0.686-1.763,0.686c-0.746,0-1.338-0.229-1.778-0.684
		C470.282,318.307,470.062,317.68,470.062,316.883 M471.104,316.848c0,0.568,0.131,0.998,0.394,1.291
		c0.262,0.293,0.594,0.439,0.998,0.439c0.403,0,0.734-0.146,0.994-0.436c0.258-0.291,0.387-0.727,0.387-1.309
		c0-0.574-0.127-1.002-0.377-1.285c-0.252-0.281-0.586-0.424-1.004-0.424c-0.416,0-0.752,0.145-1.009,0.43
		C471.231,315.84,471.104,316.271,471.104,316.848"/>
	<!-- }} -->
	
	<!-- {{ BASE -->
	<path d="M447.325,320.346h2.003c0.397,0,0.692,0.018,0.887,0.051c0.195,0.033,0.369,0.102,0.522,0.207
		c0.154,0.104,0.283,0.244,0.385,0.418c0.104,0.173,0.154,0.369,0.154,0.586c0,0.234-0.063,0.451-0.189,0.646
		c-0.127,0.195-0.299,0.342-0.516,0.44c0.306,0.089,0.541,0.241,0.705,0.454c0.164,0.215,0.246,0.467,0.246,0.755
		c0,0.229-0.053,0.45-0.16,0.665c-0.104,0.217-0.25,0.389-0.433,0.518c-0.184,0.129-0.409,0.207-0.679,0.236
		c-0.169,0.02-0.575,0.031-1.221,0.035h-1.705V320.346z M448.337,321.18v1.16H449c0.394,0,0.64-0.006,0.733-0.018
		c0.174-0.021,0.311-0.08,0.41-0.18c0.098-0.1,0.148-0.23,0.148-0.391c0-0.156-0.043-0.281-0.128-0.379
		c-0.086-0.096-0.214-0.154-0.382-0.176c-0.1-0.012-0.389-0.018-0.864-0.018H448.337z M448.337,323.174v1.34h0.938
		c0.363,0,0.595-0.012,0.692-0.031c0.149-0.027,0.272-0.094,0.368-0.201c0.094-0.105,0.143-0.246,0.143-0.424
		c0-0.15-0.037-0.279-0.111-0.383c-0.072-0.105-0.178-0.182-0.315-0.23c-0.138-0.047-0.437-0.07-0.897-0.07H448.337z"/>
	<path d="M456.896,325.357h-1.1l-0.438-1.139h-2.004l-0.413,1.139h-1.074l1.952-5.012h1.068L456.896,325.357z M455.032,323.375
		l-0.689-1.859l-0.678,1.859H455.032z"/>
	<path d="M457.176,323.727l0.983-0.096c0.06,0.33,0.181,0.575,0.361,0.729c0.182,0.154,0.426,0.232,0.733,0.232
		c0.325,0,0.571-0.068,0.735-0.207c0.166-0.138,0.25-0.299,0.25-0.484c0-0.117-0.037-0.219-0.105-0.303
		c-0.068-0.082-0.189-0.154-0.364-0.217c-0.118-0.041-0.389-0.113-0.81-0.218c-0.543-0.134-0.924-0.3-1.141-0.495
		c-0.309-0.277-0.463-0.613-0.463-1.01c0-0.254,0.072-0.494,0.217-0.715c0.146-0.223,0.354-0.393,0.625-0.508
		c0.273-0.117,0.602-0.174,0.987-0.174c0.63,0,1.103,0.137,1.421,0.412c0.317,0.277,0.483,0.645,0.5,1.105l-1.012,0.043
		c-0.044-0.256-0.137-0.441-0.277-0.555c-0.144-0.113-0.357-0.17-0.643-0.17c-0.294,0-0.523,0.061-0.689,0.182
		c-0.107,0.078-0.162,0.182-0.162,0.311c0,0.119,0.051,0.221,0.151,0.305c0.127,0.107,0.437,0.219,0.931,0.336
		c0.492,0.115,0.855,0.236,1.09,0.359c0.238,0.125,0.422,0.295,0.555,0.51c0.134,0.215,0.199,0.481,0.199,0.799
		c0,0.287-0.079,0.556-0.238,0.808c-0.16,0.25-0.387,0.435-0.678,0.558c-0.291,0.121-0.654,0.182-1.09,0.182
		c-0.633,0-1.121-0.146-1.459-0.439C457.444,324.715,457.241,324.288,457.176,323.727"/>
	<polygon points="462.101,325.357 462.101,320.346 465.816,320.346 465.816,321.193 463.112,321.193 463.112,322.305 
		465.628,322.305 465.628,323.148 463.112,323.148 463.112,324.514 465.913,324.514 465.913,325.357 	"/>
	<!-- }}	-->
		
	<!-- {{ BATTERY -->	
	<path d="M450.236,283.965l-2.506,1.953v3.785c0,0.4,0.291,0.727,0.649,0.727h4.744c0.357,0,0.648-0.326,0.648-0.727v-7.574
		l-2.946,2.295L450.236,283.965z"/>		
	<path d="M453.772,278.747c0-0.397-0.291-0.725-0.648-0.725h-0.92v-0.227c0-0.428-0.313-0.777-0.697-0.777h-1.512
		c-0.382,0-0.695,0.35-0.695,0.777v0.227h-0.922c-0.356,0-0.647,0.327-0.647,0.725v1.72v4.48l2.506-1.953l0.591,0.46l2.945-2.298
		v-0.689V278.747z"/>
	<!-- }} -->	
	
	<!-- {{ A -->
	<path d="M452.349,350.857h-1.1l-0.438-1.137h-2.004l-0.413,1.137h-1.073l1.953-5.01h1.068L452.349,350.857z M450.486,348.875
		l-0.69-1.859l-0.677,1.859H450.486z"/>
	<!-- }} -->
	
	<!-- {{ B -->
	<path d="M454.573,345.848h2.004c0.396,0,0.693,0.016,0.887,0.049c0.195,0.033,0.369,0.102,0.523,0.207s0.283,0.244,0.385,0.418
		c0.104,0.176,0.152,0.371,0.152,0.588c0,0.234-0.063,0.449-0.188,0.645c-0.127,0.197-0.298,0.344-0.515,0.44
		c0.306,0.091,0.539,0.241,0.703,0.456c0.166,0.215,0.248,0.465,0.248,0.756c0,0.227-0.054,0.449-0.16,0.663
		c-0.105,0.216-0.25,0.388-0.434,0.517s-0.408,0.209-0.679,0.238c-0.168,0.018-0.575,0.029-1.22,0.033h-1.707V345.848z
		 M455.586,346.682v1.158h0.663c0.395,0,0.641-0.006,0.734-0.018c0.174-0.02,0.31-0.08,0.41-0.18
		c0.098-0.098,0.147-0.229,0.147-0.391c0-0.154-0.043-0.281-0.128-0.377c-0.086-0.098-0.213-0.156-0.381-0.176
		c-0.1-0.012-0.389-0.018-0.865-0.018H455.586z M455.586,348.674v1.34h0.937c0.365,0,0.596-0.01,0.694-0.031
		c0.149-0.027,0.272-0.094,0.367-0.199s0.142-0.248,0.142-0.426c0-0.15-0.035-0.277-0.109-0.383
		c-0.072-0.105-0.178-0.182-0.316-0.229c-0.138-0.049-0.438-0.072-0.896-0.072H455.586z"/>
	<!-- }} -->	
		
	<!-- {{ C -->	
	<path d="M464.777,349.016l0.979,0.311c-0.148,0.547-0.398,0.953-0.75,1.219c-0.349,0.266-0.793,0.398-1.33,0.398
		c-0.666,0-1.213-0.227-1.641-0.682s-0.643-1.076-0.643-1.865c0-0.834,0.215-1.48,0.646-1.944c0.43-0.46,0.996-0.69,1.698-0.69
		c0.612,0,1.11,0.182,1.493,0.543c0.229,0.215,0.4,0.522,0.513,0.924l-1.001,0.238c-0.061-0.26-0.184-0.465-0.371-0.615
		c-0.189-0.15-0.416-0.225-0.686-0.225c-0.37,0-0.674,0.133-0.904,0.4c-0.23,0.266-0.347,0.697-0.347,1.295
		c0,0.633,0.114,1.084,0.342,1.354c0.229,0.27,0.524,0.402,0.89,0.402c0.269,0,0.5-0.084,0.693-0.256
		C464.554,349.652,464.692,349.383,464.777,349.016"/>
	<!-- }} -->	
	
	<!-- {{ D -->
	<path d="M468.567,345.848h1.85c0.417,0,0.734,0.031,0.953,0.096c0.294,0.086,0.546,0.24,0.756,0.461
		c0.209,0.221,0.369,0.492,0.479,0.812c0.109,0.321,0.164,0.716,0.164,1.185c0,0.412-0.051,0.768-0.154,1.065
		c-0.125,0.366-0.305,0.661-0.536,0.886c-0.176,0.172-0.413,0.305-0.711,0.4c-0.224,0.07-0.522,0.105-0.896,0.105h-1.904V345.848z
		 M469.579,346.695v3.318h0.756c0.282,0,0.486-0.016,0.611-0.048c0.164-0.04,0.301-0.11,0.408-0.207
		c0.108-0.099,0.197-0.261,0.266-0.485s0.104-0.529,0.104-0.918c0-0.387-0.035-0.684-0.104-0.891
		c-0.068-0.209-0.164-0.369-0.287-0.486c-0.123-0.115-0.279-0.195-0.469-0.236c-0.141-0.031-0.418-0.047-0.83-0.047H469.579z"/>
	<!-- }} -->
		
</g>

</svg>
